{"asset":{"version":"2.0","generator":"Blockbench 4.11.2 glTF exporter"},"scenes":[{"nodes":[19],"name":"blockbench_export"}],"scene":0,"nodes":[{"rotation":[0,0.3826834323650898,0,0.9238795325112867],"translation":[0,0.125,0],"name":"cuboid","mesh":0},{"rotation":[0,0.42261826174069944,0,0.9063077870366499],"translation":[2.375,0.0625,-2.625],"name":"cuboid","mesh":1},{"translation":[0.4375,0.25,-4.125],"name":"cuboid","mesh":2},{"rotation":[0,0.1521233861899167,0,0.9883615104677607],"translation":[2.4375,0.1875,-4.875],"name":"cuboid","mesh":3},{"rotation":[0,-0.1521233861899167,0,0.9883615104677607],"translation":[-0.25,0.4375,-5.5625],"name":"cuboid","mesh":4},{"rotation":[0,0.40274668985873724,0,0.9153114791194471],"translation":[-1.5625,0.625,-6.4375],"name":"cuboid","mesh":5},{"rotation":[0,-0.1521233861899167,0,0.9883615104677607],"translation":[-1.8125,1.4375,-7.4375],"name":"cuboid","mesh":6},{"rotation":[0,-0.46174861323503386,0,0.8870108331782217],"translation":[-2.4375,1.4375,-8.6875],"name":"cuboid","mesh":7},{"rotation":[0,-0.659345815100069,0,0.7518398074789774],"translation":[-3.8125,1.4375,-9.75],"name":"cuboid","mesh":8},{"rotation":[-0.02094337720087619,-0.27976242230339704,-0.0061044377704206785,0.9598213885186476],"translation":[-12.1875,0.0625,1.0625],"name":"cuboid","mesh":9},{"rotation":[0,0.3826834323650898,0,0.9238795325112867],"translation":[14.875,-0.18437499999999962,5.109375],"name":"cuboid","mesh":10},{"translation":[-7.5,0.375,0],"name":"cuboid","children":[10]},{"rotation":[0,0.984807753012208,0,0.17364817766693041],"translation":[-28.0625,0.4375,-2.5625],"name":"baseRaised","mesh":11},{"rotation":[0,0.984807753012208,0,0.17364817766693041],"translation":[-29.8125,4.125,-2.3125],"name":"cuboid","mesh":12},{"rotation":[0,-0.02181488503456112,0,0.9997620270799091],"name":"base","mesh":13},{"rotation":[0,0.3826834323650898,0,0.9238795325112867],"translation":[18.8125,-0.671875,-8.3125],"name":"cuboid","mesh":14},{"rotation":[0,-0.02181488503456112,0,0.9997620270799091],"translation":[-12.46875,3.375,-2.40625],"name":"cuboid","mesh":15},{"rotation":[0,-0.10886687485196457,0,0.9940563382223196],"translation":[-10.96875,0.4375,2.84375],"name":"cuboid","mesh":16},{"translation":[1.375,-0.3125,-6.8125],"name":"base","children":[12,13,14,15,16,17]},{"children":[0,1,2,3,4,5,6,7,8,9,11,18]}],"bufferViews":[{"buffer":0,"byteOffset":0,"byteLength":4536,"target":34962,"byteStride":12},{"buffer":0,"byteOffset":4536,"byteLength":4536,"target":34962,"byteStride":12},{"buffer":0,"byteOffset":9072,"byteLength":3024,"target":34962,"byteStride":8},{"buffer":0,"byteOffset":12096,"byteLength":1116,"target":34963},{"buffer":0,"byteOffset":13212,"byteLength":1368,"target":34962,"byteStride":12},{"buffer":0,"byteOffset":14580,"byteLength":1368,"target":34962,"byteStride":12},{"buffer":0,"byteOffset":15948,"byteLength":912,"target":34962,"byteStride":8},{"buffer":0,"byteOffset":16860,"byteLength":336,"target":34963},{"buffer":0,"byteOffset":17196,"byteLength":1368,"target":34962,"byteStride":12},{"buffer":0,"byteOffset":18564,"byteLength":1368,"target":34962,"byteStride":12},{"buffer":0,"byteOffset":19932,"byteLength":912,"target":34962,"byteStride":8},{"buffer":0,"byteOffset":20844,"byteLength":336,"target":34963},{"buffer":0,"byteOffset":21180,"byteLength":1368,"target":34962,"byteStride":12},{"buffer":0,"byteOffset":22548,"byteLength":1368,"target":34962,"byteStride":12},{"buffer":0,"byteOffset":23916,"byteLength":912,"target":34962,"byteStride":8},{"buffer":0,"byteOffset":24828,"byteLength":336,"target":34963},{"buffer":0,"byteOffset":25164,"byteLength":1368,"target":34962,"byteStride":12},{"buffer":0,"byteOffset":26532,"byteLength":1368,"target":34962,"byteStride":12},{"buffer":0,"byteOffset":27900,"byteLength":912,"target":34962,"byteStride":8},{"buffer":0,"byteOffset":28812,"byteLength":336,"target":34963},{"buffer":0,"byteOffset":29148,"byteLength":1368,"target":34962,"byteStride":12},{"buffer":0,"byteOffset":30516,"byteLength":1368,"target":34962,"byteStride":12},{"buffer":0,"byteOffset":31884,"byteLength":912,"target":34962,"byteStride":8},{"buffer":0,"byteOffset":32796,"byteLength":336,"target":34963},{"buffer":0,"byteOffset":33132,"byteLength":1368,"target":34962,"byteStride":12},{"buffer":0,"byteOffset":34500,"byteLength":1368,"target":34962,"byteStride":12},{"buffer":0,"byteOffset":35868,"byteLength":912,"target":34962,"byteStride":8},{"buffer":0,"byteOffset":36780,"byteLength":336,"target":34963},{"buffer":0,"byteOffset":37116,"byteLength":1368,"target":34962,"byteStride":12},{"buffer":0,"byteOffset":38484,"byteLength":1368,"target":34962,"byteStride":12},{"buffer":0,"byteOffset":39852,"byteLength":912,"target":34962,"byteStride":8},{"buffer":0,"byteOffset":40764,"byteLength":336,"target":34963},{"buffer":0,"byteOffset":41100,"byteLength":1368,"target":34962,"byteStride":12},{"buffer":0,"byteOffset":42468,"byteLength":1368,"target":34962,"byteStride":12},{"buffer":0,"byteOffset":43836,"byteLength":912,"target":34962,"byteStride":8},{"buffer":0,"byteOffset":44748,"byteLength":336,"target":34963},{"buffer":0,"byteOffset":45084,"byteLength":288,"target":34962,"byteStride":12},{"buffer":0,"byteOffset":45372,"byteLength":288,"target":34962,"byteStride":12},{"buffer":0,"byteOffset":45660,"byteLength":192,"target":34962,"byteStride":8},{"buffer":0,"byteOffset":45852,"byteLength":72,"target":34963},{"buffer":0,"byteOffset":45924,"byteLength":444528,"target":34962,"byteStride":12},{"buffer":0,"byteOffset":490452,"byteLength":444528,"target":34962,"byteStride":12},{"buffer":0,"byteOffset":934980,"byteLength":296352,"target":34962,"byteStride":8},{"buffer":0,"byteOffset":1231332,"byteLength":109368,"target":34963},{"buffer":0,"byteOffset":1340700,"byteLength":27216,"target":34962,"byteStride":12},{"buffer":0,"byteOffset":1367916,"byteLength":27216,"target":34962,"byteStride":12},{"buffer":0,"byteOffset":1395132,"byteLength":18144,"target":34962,"byteStride":8},{"buffer":0,"byteOffset":1413276,"byteLength":6696,"target":34963},{"buffer":0,"byteOffset":1419972,"byteLength":4536,"target":34962,"byteStride":12},{"buffer":0,"byteOffset":1424508,"byteLength":4536,"target":34962,"byteStride":12},{"buffer":0,"byteOffset":1429044,"byteLength":3024,"target":34962,"byteStride":8},{"buffer":0,"byteOffset":1432068,"byteLength":1116,"target":34963},{"buffer":0,"byteOffset":1433184,"byteLength":26640,"target":34962,"byteStride":12},{"buffer":0,"byteOffset":1459824,"byteLength":26640,"target":34962,"byteStride":12},{"buffer":0,"byteOffset":1486464,"byteLength":17760,"target":34962,"byteStride":8},{"buffer":0,"byteOffset":1504224,"byteLength":6576,"target":34963},{"buffer":0,"byteOffset":1510800,"byteLength":4536,"target":34962,"byteStride":12},{"buffer":0,"byteOffset":1515336,"byteLength":4536,"target":34962,"byteStride":12},{"buffer":0,"byteOffset":1519872,"byteLength":3024,"target":34962,"byteStride":8},{"buffer":0,"byteOffset":1522896,"byteLength":1116,"target":34963},{"buffer":0,"byteOffset":1524012,"byteLength":4536,"target":34962,"byteStride":12},{"buffer":0,"byteOffset":1528548,"byteLength":4536,"target":34962,"byteStride":12},{"buffer":0,"byteOffset":1533084,"byteLength":3024,"target":34962,"byteStride":8},{"buffer":0,"byteOffset":1536108,"byteLength":1116,"target":34963},{"buffer":0,"byteOffset":1537224,"byteLength":4536,"target":34962,"byteStride":12},{"buffer":0,"byteOffset":1541760,"byteLength":4536,"target":34962,"byteStride":12},{"buffer":0,"byteOffset":1546296,"byteLength":3024,"target":34962,"byteStride":8},{"buffer":0,"byteOffset":1549320,"byteLength":1116,"target":34963}],"buffers":[{"byteLength":1550436,"uri":"data:application/octet-stream;base64,"}],"accessors":[{"bufferView":0,"componentType":5126,"count":378,"max":[1.061985969543457,1.0750000476837158,0.6191949844360352],"min":[-0.5705814361572266,-3.012500047683716,-0.9747499823570251],"type":"VEC3"},{"bufferView":1,"componentType":5126,"count":378,"max":[0.9633108973503113,1,0.9938132166862488],"min":[-0.9974005222320557,-1,-0.999872624874115],"type":"VEC3"},{"bufferView":2,"componentType":5126,"count":378,"max":[0.984375,0.359375],"min":[0.015625,0.015625],"type":"VEC2"},{"bufferView":3,"componentType":5123,"count":558,"max":[377],"min":[0],"type":"SCALAR"},{"bufferView":4,"componentType":5126,"count":114,"max":[0.875,0.3125,0.6875],"min":[-1.21875,0.1875,-1.125],"type":"VEC3"},{"bufferView":5,"componentType":5126,"count":114,"max":[0.9846269488334656,1,1],"min":[-0.9974918961524963,-1,-1],"type":"VEC3"},{"bufferView":6,"componentType":5126,"count":114,"max":[0.984375,0.109375],"min":[0.015625,0.015625],"type":"VEC2"},{"bufferView":7,"componentType":5123,"count":168,"max":[113],"min":[0],"type":"SCALAR"},{"bufferView":8,"componentType":5126,"count":114,"max":[1.0625,0.3125,1.1875],"min":[-1.40625,0.1875,-1.625],"type":"VEC3"},{"bufferView":9,"componentType":5126,"count":114,"max":[0.991036593914032,1,1],"min":[-0.9985495209693909,-1,-1],"type":"VEC3"},{"bufferView":10,"componentType":5126,"count":114,"max":[0.984375,0.109375],"min":[0.015625,0.015625],"type":"VEC2"},{"bufferView":11,"componentType":5123,"count":168,"max":[113],"min":[0],"type":"SCALAR"},{"bufferView":12,"componentType":5126,"count":114,"max":[0.9375,0.3125,1],"min":[-1.28125,0.1875,-1.4375],"type":"VEC3"},{"bufferView":13,"componentType":5126,"count":114,"max":[0.9903707504272461,1,1],"min":[-0.9984404444694519,-1,-1],"type":"VEC3"},{"bufferView":14,"componentType":5126,"count":114,"max":[0.984375,0.109375],"min":[0.015625,0.015625],"type":"VEC2"},{"bufferView":15,"componentType":5123,"count":168,"max":[113],"min":[0],"type":"SCALAR"},{"bufferView":16,"componentType":5126,"count":114,"max":[0.9375,0.3125,1.25],"min":[-1.28125,0.1875,-1.6875],"type":"VEC3"},{"bufferView":17,"componentType":5126,"count":114,"max":[0.9933399558067322,1,1],"min":[-0.9989253878593445,-1,-1],"type":"VEC3"},{"bufferView":18,"componentType":5126,"count":114,"max":[0.984375,0.109375],"min":[0.015625,0.015625],"type":"VEC2"},{"bufferView":19,"componentType":5123,"count":168,"max":[113],"min":[0],"type":"SCALAR"},{"bufferView":20,"componentType":5126,"count":114,"max":[1.3125,0.3125,1.125],"min":[-1.65625,0.1875,-1.5625],"type":"VEC3"},{"bufferView":21,"componentType":5126,"count":114,"max":[0.9859145283699036,1,1],"min":[-0.9977056980133057,-1,-1],"type":"VEC3"},{"bufferView":22,"componentType":5126,"count":114,"max":[0.984375,0.109375],"min":[0.015625,0.015625],"type":"VEC2"},{"bufferView":23,"componentType":5123,"count":168,"max":[113],"min":[0],"type":"SCALAR"},{"bufferView":24,"componentType":5126,"count":114,"max":[0.4375,0.3125,0.3125],"min":[-0.78125,0.1875,-0.75],"type":"VEC3"},{"bufferView":25,"componentType":5126,"count":114,"max":[0.9848372340202332,1,1],"min":[-0.9975268244743347,-1,-1],"type":"VEC3"},{"bufferView":26,"componentType":5126,"count":114,"max":[0.984375,0.109375],"min":[0.015625,0.015625],"type":"VEC2"},{"bufferView":27,"componentType":5123,"count":168,"max":[113],"min":[0],"type":"SCALAR"},{"bufferView":28,"componentType":5126,"count":114,"max":[0.4375,0.3125,0.3125],"min":[-0.78125,0.1875,-0.75],"type":"VEC3"},{"bufferView":29,"componentType":5126,"count":114,"max":[0.9848372340202332,1,1],"min":[-0.9975268244743347,-1,-1],"type":"VEC3"},{"bufferView":30,"componentType":5126,"count":114,"max":[0.984375,0.109375],"min":[0.015625,0.015625],"type":"VEC2"},{"bufferView":31,"componentType":5123,"count":168,"max":[113],"min":[0],"type":"SCALAR"},{"bufferView":32,"componentType":5126,"count":114,"max":[0.6875,0.3125,0.5],"min":[-1.03125,0.1875,-0.9375],"type":"VEC3"},{"bufferView":33,"componentType":5126,"count":114,"max":[0.9835575222969055,1,1],"min":[-0.9973137378692627,-1,-1],"type":"VEC3"},{"bufferView":34,"componentType":5126,"count":114,"max":[0.984375,0.109375],"min":[0.015625,0.015625],"type":"VEC2"},{"bufferView":35,"componentType":5123,"count":168,"max":[113],"min":[0],"type":"SCALAR"},{"bufferView":36,"componentType":5126,"count":24,"max":[2.5,1.0625,2],"min":[-2.5,-0.5625,-2.8433914184570312],"type":"VEC3"},{"bufferView":37,"componentType":5126,"count":24,"max":[0.40599989891052246,0.947860062122345,0.4337137043476105],"min":[-1,-1,-0.8531579375267029],"type":"VEC3"},{"bufferView":38,"componentType":5126,"count":24,"max":[0.359375,0.046875],"min":[0.015625,0.015625],"type":"VEC2"},{"bufferView":39,"componentType":5123,"count":36,"max":[23],"min":[0],"type":"SCALAR"},{"bufferView":40,"componentType":5126,"count":37044,"max":[34.05220031738281,5.525000095367432,7.060905933380127],"min":[-43.799381256103516,-23.609375,-50.317298889160156],"type":"VEC3"},{"bufferView":41,"componentType":5126,"count":37044,"max":[0.9999613165855408,1,0.9999780058860779],"min":[-0.9999999403953552,-1,-0.9999992251396179],"type":"VEC3"},{"bufferView":42,"componentType":5126,"count":37044,"max":[0.984375,0.359375],"min":[0.015625,0.015625],"type":"VEC2"},{"bufferView":43,"componentType":5123,"count":54684,"max":[37043],"min":[0],"type":"SCALAR"},{"bufferView":44,"componentType":5126,"count":2268,"max":[16.592144012451172,4.137499809265137,11.34279727935791],"min":[-18.706912994384766,-16.137500762939453,-24.366065979003906],"type":"VEC3"},{"bufferView":45,"componentType":5126,"count":2268,"max":[0.9929458498954773,1,0.9995256662368774],"min":[-0.9966134428977966,-1,-0.9999167919158936],"type":"VEC3"},{"bufferView":46,"componentType":5126,"count":2268,"max":[0.9921875,0.5546875],"min":[0.0078125,0.0078125],"type":"VEC2"},{"bufferView":47,"componentType":5123,"count":3348,"max":[2267],"min":[0],"type":"SCALAR"},{"bufferView":48,"componentType":5126,"count":378,"max":[7.511135101318359,6.418749809265137,5.619194984436035],"min":[-5.74300479888916,-12.552063941955566,-8.44792652130127],"type":"VEC3"},{"bufferView":49,"componentType":5126,"count":378,"max":[0.9113324284553528,1,0.9931804537773132],"min":[-0.9973053932189941,-1,-0.999864399433136],"type":"VEC3"},{"bufferView":50,"componentType":5126,"count":378,"max":[0.984375,0.359375],"min":[0.015625,0.015625],"type":"VEC2"},{"bufferView":51,"componentType":5123,"count":558,"max":[377],"min":[0],"type":"SCALAR"},{"bufferView":52,"componentType":5126,"count":2220,"max":[29.632347106933594,2.018300771713257,21.622257232666016],"min":[-39.0717887878418,-9.653124809265137,-21.233360290527344],"type":"VEC3"},{"bufferView":53,"componentType":5126,"count":2220,"max":[0.9999752044677734,1,0.9974480867385864],"min":[-0.9996196031570435,-1,-0.9999451041221619],"type":"VEC3"},{"bufferView":54,"componentType":5126,"count":2220,"max":[0.9892706871032715,0.5517706871032715],"min":[0.01072931569069624,0.00968778133392334],"type":"VEC2"},{"bufferView":55,"componentType":5123,"count":3288,"max":[2219],"min":[0],"type":"SCALAR"},{"bufferView":56,"componentType":5126,"count":378,"max":[8.061985969543457,5.758887767791748,5.994194984436035],"min":[-7.570581436157227,-6.273256301879883,-6.34975004196167],"type":"VEC3"},{"bufferView":57,"componentType":5126,"count":378,"max":[0.9300456643104553,1,0.999916672706604],"min":[-0.9960340261459351,-1,-0.986549437046051],"type":"VEC3"},{"bufferView":58,"componentType":5126,"count":378,"max":[0.984375,0.359375],"min":[0.015625,0.015625],"type":"VEC2"},{"bufferView":59,"componentType":5123,"count":558,"max":[377],"min":[0],"type":"SCALAR"},{"bufferView":60,"componentType":5126,"count":378,"max":[5.046360969543457,1.0750000476837158,4.181694984436035],"min":[-4.554956436157227,-3.012500047683716,-4.53725004196167],"type":"VEC3"},{"bufferView":61,"componentType":5126,"count":378,"max":[0.9453864693641663,1,0.9933176040649414],"min":[-0.9969969391822815,-1,-0.9998898506164551],"type":"VEC3"},{"bufferView":62,"componentType":5126,"count":378,"max":[0.984375,0.359375],"min":[0.015625,0.015625],"type":"VEC2"},{"bufferView":63,"componentType":5123,"count":558,"max":[377],"min":[0],"type":"SCALAR"},{"bufferView":64,"componentType":5126,"count":378,"max":[5.046360969543457,1.0750000476837158,4.755141258239746],"min":[-4.554956436157227,-3.012500047683716,-4.53725004196167],"type":"VEC3"},{"bufferView":65,"componentType":5126,"count":378,"max":[0.9453864693641663,1,0.9933176040649414],"min":[-0.9969969391822815,-1,-0.9998898506164551],"type":"VEC3"},{"bufferView":66,"componentType":5126,"count":378,"max":[0.984375,0.359375],"min":[0.015625,0.015625],"type":"VEC2"},{"bufferView":67,"componentType":5123,"count":558,"max":[377],"min":[0],"type":"SCALAR"}],"materials":[{"pbrMetallicRoughness":{"metallicFactor":0,"roughnessFactor":1,"baseColorTexture":{"index":0}},"alphaMode":"MASK","alphaCutoff":0.05,"doubleSided":true},{"pbrMetallicRoughness":{"metallicFactor":0,"roughnessFactor":1,"baseColorTexture":{"index":1}},"alphaMode":"MASK","alphaCutoff":0.05,"doubleSided":true},{"pbrMetallicRoughness":{"metallicFactor":0,"roughnessFactor":1,"baseColorTexture":{"index":2}},"alphaMode":"MASK","alphaCutoff":0.05,"doubleSided":true},{"pbrMetallicRoughness":{"metallicFactor":0,"roughnessFactor":1,"baseColorTexture":{"index":3}},"alphaMode":"MASK","alphaCutoff":0.05,"doubleSided":true},{"pbrMetallicRoughness":{"metallicFactor":0,"roughnessFactor":1,"baseColorTexture":{"index":4}},"alphaMode":"MASK","alphaCutoff":0.05,"doubleSided":true},{"pbrMetallicRoughness":{"metallicFactor":0,"roughnessFactor":1,"baseColorTexture":{"index":5}},"alphaMode":"MASK","alphaCutoff":0.05,"doubleSided":true},{"pbrMetallicRoughness":{"metallicFactor":0,"roughnessFactor":1,"baseColorTexture":{"index":6}},"alphaMode":"MASK","alphaCutoff":0.05,"doubleSided":true},{"pbrMetallicRoughness":{"metallicFactor":0,"roughnessFactor":1,"baseColorTexture":{"index":7}},"alphaMode":"MASK","alphaCutoff":0.05,"doubleSided":true}],"textures":[{"sampler":0,"source":0,"name":"basalt.png"},{"sampler":1,"source":1,"name":"texture"},{"sampler":2,"source":2,"name":"texture"},{"sampler":3,"source":3,"name":"texture"},{"sampler":4,"source":4,"name":"texture"},{"sampler":5,"source":5,"name":"texture"},{"sampler":6,"source":6,"name":"texture"},{"sampler":7,"source":7,"name":"texture"}],"samplers":[{"magFilter":9728,"minFilter":9728,"wrapS":33071,"wrapT":33071},{"magFilter":9728,"minFilter":9728,"wrapS":33071,"wrapT":33071},{"magFilter":9728,"minFilter":9728,"wrapS":33071,"wrapT":33071},{"magFilter":9728,"minFilter":9728,"wrapS":33071,"wrapT":33071},{"magFilter":9728,"minFilter":9728,"wrapS":33071,"wrapT":33071},{"magFilter":9728,"minFilter":9728,"wrapS":33071,"wrapT":33071},{"magFilter":9728,"minFilter":9728,"wrapS":33071,"wrapT":33071},{"magFilter":9728,"minFilter":9728,"wrapS":33071,"wrapT":33071}],"images":[{"mimeType":"image/png","uri":"data:image/png;base64,"},{"mimeType":"image/png","uri":"data:image/png;base64,"},{"mimeType":"image/png","uri":"data:image/png;base64,"},{"mimeType":"image/png","uri":"data:image/png;base64,"},{"mimeType":"image/png","uri":"data:image/png;base64,"},{"mimeType":"image/png","uri":"data:image/png;base64,"},{"mimeType":"image/png","uri":"data:image/png;base64,"},{"mimeType":"image/png","uri":"data:image/png;base64,"}],"meshes":[{"primitives":[{"mode":4,"attributes":{"POSITION":0,"NORMAL":1,"TEXCOORD_0":2},"indices":3,"material":0}]},{"primitives":[{"mode":4,"attributes":{"POSITION":4,"NORMAL":5,"TEXCOORD_0":6},"indices":7,"material":1}]},{"primitives":[{"mode":4,"attributes":{"POSITION":8,"NORMAL":9,"TEXCOORD_0":10},"indices":11,"material":1}]},{"primitives":[{"mode":4,"attributes":{"POSITION":12,"NORMAL":13,"TEXCOORD_0":14},"indices":15,"material":1}]},{"primitives":[{"mode":4,"attributes":{"POSITION":16,"NORMAL":17,"TEXCOORD_0":18},"indices":19,"material":1}]},{"primitives":[{"mode":4,"attributes":{"POSITION":20,"NORMAL":21,"TEXCOORD_0":22},"indices":23,"material":1}]},{"primitives":[{"mode":4,"attributes":{"POSITION":24,"NORMAL":25,"TEXCOORD_0":26},"indices":27,"material":1}]},{"primitives":[{"mode":4,"attributes":{"POSITION":28,"NORMAL":29,"TEXCOORD_0":30},"indices":31,"material":1}]},{"primitives":[{"mode":4,"attributes":{"POSITION":32,"NORMAL":33,"TEXCOORD_0":34},"indices":35,"material":1}]},{"primitives":[{"mode":4,"attributes":{"POSITION":36,"NORMAL":37,"TEXCOORD_0":38},"indices":39,"material":2}]},{"primitives":[{"mode":4,"attributes":{"POSITION":40,"NORMAL":41,"TEXCOORD_0":42},"indices":43,"material":0}]},{"primitives":[{"mode":4,"attributes":{"POSITION":44,"NORMAL":45,"TEXCOORD_0":46},"indices":47,"material":3}]},{"primitives":[{"mode":4,"attributes":{"POSITION":48,"NORMAL":49,"TEXCOORD_0":50},"indices":51,"material":4}]},{"primitives":[{"mode":4,"attributes":{"POSITION":52,"NORMAL":53,"TEXCOORD_0":54},"indices":55,"material":5}]},{"primitives":[{"mode":4,"attributes":{"POSITION":56,"NORMAL":57,"TEXCOORD_0":58},"indices":59,"material":6}]},{"primitives":[{"mode":4,"attributes":{"POSITION":60,"NORMAL":61,"TEXCOORD_0":62},"indices":63,"material":7}]},{"primitives":[{"mode":4,"attributes":{"POSITION":64,"NORMAL":65,"TEXCOORD_0":66},"indices":67,"material":7}]}]}